<?xml version="1.0" encoding="utf-8"?>
<!-- Generator: Adobe Illustrator 22.1.0, SVG Export Plug-In . SVG Version: 6.00 Build 0)  -->
<svg version="1.1" id="Layer_1" xmlns="http://www.w3.org/2000/svg" xmlns:xlink="http://www.w3.org/1999/xlink" x="0px" y="0px"
	 viewBox="0 0 86.3 48.2" style="enable-background:new 0 0 86.3 48.2;" xml:space="preserve">
<style type="text/css">
	.st0{fill:#F3F3F3;}
</style>
<g>
	<path class="st0" d="M1.6,39.2c7.4-4.3,13-8.3,16.6-12.1s5.4-7.3,5.4-10.5c0-1.6-0.4-2.9-1.3-3.9c-0.9-1-2.1-1.5-3.7-1.5
		c-3.9,0-5.9,3-5.9,9.1L0,16.9c0-3.6,0.8-6.7,2.5-9.3c1.7-2.5,4-4.5,6.9-5.7c2.9-1.3,6.3-1.9,10-1.9c4.3,0,7.8,0.8,10.6,2.3
		c2.8,1.5,4.8,3.5,6.1,5.8c1.3,2.4,1.9,4.8,1.9,7.3c0,4.4-1.7,8.4-5,12c-3.3,3.6-8.1,7-14.3,10.2v0.1c3-0.2,6.5-0.4,10.5-0.4h9.1
		v10.9H1.6V39.2z"/>
	<path class="st0" d="M86.3,38.5h-6.8v9.7H66.7v-9.7H42.6v-6.4L62.4,0.7h17.1v28.1h6.8V38.5z M56,28.8h10.7V17.9l0.2-7.8h-0.1
		c-0.9,2.4-2.2,5-3.9,7.8L56,28.8z"/>
</g>
</svg>
