<?xml version="1.0" encoding="utf-8"?>
<!-- Generator: Adobe Illustrator 22.1.0, SVG Export Plug-In . SVG Version: 6.00 Build 0)  -->
<svg version="1.1" id="Layer_1" xmlns="http://www.w3.org/2000/svg" xmlns:xlink="http://www.w3.org/1999/xlink" x="0px" y="0px"
	 viewBox="0 0 395.2 59.6" style="enable-background:new 0 0 395.2 59.6;" xml:space="preserve">
<style type="text/css">
	.st0{fill:#FDFDFD;}
</style>
<g>
	<path class="st0" d="M20.1,53.5c-4.8-0.2-8.8-0.9-11.9-2.2S2.4,48.1,0,45.6L6.3,37c1.4,2.1,3.3,3.7,5.6,4.8
		c2.4,1.2,5.1,1.8,8.1,2.1v-8.8c-3.7-0.7-6.9-1.4-9.4-2.3C8.2,32,6,30.6,4.2,28.7s-2.7-4.5-2.7-7.8c0-4.1,1.6-7.5,4.9-10.2
		C9.6,8,14.2,6.5,20.1,6.1V0h4.8v6c4.7,0.2,8.5,1,11.3,2.3c2.9,1.4,5.5,3.3,8,5.9l-6.6,8.1c-1.6-2.2-3.4-3.8-5.4-4.8
		c-2-1.1-4.5-1.7-7.2-1.9v9.3c3.7,0.7,6.8,1.5,9.4,2.3c2.6,0.9,4.8,2.3,6.6,4.3s2.7,4.7,2.7,8c0,4.1-1.7,7.4-5.2,9.8
		c-3.5,2.5-8,3.8-13.5,4.1v6.1h-4.8v-6H20.1z M20.1,15.9c-1.8,0.2-3.1,0.7-4.1,1.4c-0.9,0.7-1.4,1.6-1.4,2.7c0,1,0.5,1.8,1.4,2.4
		s2.3,1.1,4.1,1.6V15.9z M30.5,40.2c0-1.1-0.5-1.9-1.4-2.5c-1-0.6-2.4-1.2-4.2-1.6v7.8C28.6,43.5,30.5,42.2,30.5,40.2z"/>
	<path class="st0" d="M49.2,44.5c7.4-4.3,13-8.3,16.6-12.1c3.6-3.8,5.4-7.3,5.4-10.5c0-1.6-0.4-2.9-1.3-3.9s-2.1-1.5-3.7-1.5
		c-3.9,0-5.9,3-5.9,9.1l-12.6-3.4c0-3.6,0.8-6.7,2.5-9.3c1.7-2.5,4-4.5,6.9-5.7C60,6,63.3,5.3,67,5.3c4.3,0,7.8,0.8,10.6,2.3
		c2.8,1.5,4.8,3.5,6.1,5.8c1.3,2.4,1.9,4.8,1.9,7.3c0,4.4-1.7,8.4-5,12s-8.1,7-14.3,10.2V43c3-0.2,6.5-0.4,10.5-0.4h9.1v10.9H49.2
		V44.5z"/>
	<path class="st0" d="M124,7.9c3,1.7,5.1,4.4,6.3,8.2l-11.8,5.5c-0.8-3.3-2.9-4.9-6.1-4.9c-2.3,0-4.2,1-5.6,3.1
		c-1.4,2-2.2,4.9-2.2,8.7v1.1h0.1c1.7-3.6,5.4-5.3,10.9-5.3c2.9,0,5.5,0.6,7.8,1.8c2.3,1.2,4.1,2.9,5.4,5.1c1.3,2.2,2,4.8,2,7.6
		c0,4.8-1.7,8.6-5,11.4c-3.3,2.8-8,4.2-14,4.2c-6.6,0-11.6-2-15-6.1c-3.5-4.1-5.2-10.2-5.2-18.4s2-14.3,5.9-18.4s9.2-6.1,15.8-6.1
		C117.4,5.3,121,6.2,124,7.9z M108.1,34.8c-1,0.9-1.4,2.2-1.4,3.7c0,1.6,0.5,2.9,1.4,3.8c1,0.9,2.3,1.3,4,1.3c1.8,0,3.1-0.4,4.1-1.3
		c1-0.9,1.4-2.1,1.4-3.8c0-1.6-0.5-2.9-1.4-3.8c-1-0.9-2.3-1.3-4.1-1.3C110.4,33.5,109.1,33.9,108.1,34.8z"/>
	<path class="st0" d="M212.9,20.1c2.1,2.2,3.2,5.2,3.2,9.1v24.3h-14.5V32.8c0-1.8-0.3-3.1-0.9-3.9c-0.6-0.8-1.5-1.2-2.7-1.2
		c-1.5,0-2.7,0.6-3.6,1.7c-0.8,1.2-1.3,2.9-1.3,5.1v19h-14.5V32.8c0-1.8-0.3-3.1-0.9-3.9c-0.6-0.8-1.5-1.2-2.7-1.2
		c-1.5,0-2.7,0.6-3.5,1.7c-0.9,1.2-1.3,2.9-1.3,5.2v18.9h-14.5v-36h13.1l0.4,7.4c1.1-2.6,2.7-4.7,4.8-6c2.1-1.4,4.6-2.1,7.5-2.1
		c2.7,0,5.1,0.6,6.9,1.9c1.9,1.2,3.3,3,4.1,5.4c1.1-2.4,2.7-4.2,4.8-5.4c2.1-1.2,4.5-1.9,7.2-1.9C207.9,16.8,210.8,17.9,212.9,20.1z
		"/>
	<path class="st0" d="M224.1,12.9c-1.2-1-1.9-2.6-1.9-4.9s0.6-4,1.9-5c1.2-1,3.3-1.5,6.3-1.5s5,0.5,6.3,1.5c1.2,1,1.9,2.7,1.9,5
		s-0.6,3.9-1.9,4.9c-1.2,1-3.3,1.5-6.3,1.5S225.3,13.9,224.1,12.9z M237.6,53.6h-14.5v-36h14.5V53.6z"/>
	<path class="st0" d="M259.1,40.1c0,1.5,0.2,2.6,0.7,3.3s1.3,1,2.4,1s2.1-0.2,3.1-0.5l-0.8,8.3c-0.9,0.6-2.1,1.1-3.6,1.5
		c-1.6,0.4-3.1,0.6-4.6,0.6c-4.2,0-7.2-0.9-9-2.8c-1.8-1.9-2.7-4.9-2.7-9.2V2.7h14.5L259.1,40.1L259.1,40.1z"/>
	<path class="st0" d="M283.2,40.1c0,1.5,0.2,2.6,0.7,3.3s1.3,1,2.4,1s2.1-0.2,3.1-0.5l-0.8,8.3c-0.9,0.6-2.1,1.1-3.6,1.5
		c-1.6,0.4-3.1,0.6-4.6,0.6c-4.2,0-7.2-0.9-9-2.8c-1.8-1.9-2.7-4.9-2.7-9.2V2.7h14.5V40.1z"/>
	<path class="st0" d="M293.8,12.9c-1.2-1-1.9-2.6-1.9-4.9s0.6-4,1.9-5c1.2-1,3.3-1.5,6.3-1.5s5,0.5,6.3,1.5c1.2,1,1.9,2.7,1.9,5
		s-0.6,3.9-1.9,4.9c-1.2,1-3.3,1.5-6.3,1.5S295,13.9,293.8,12.9z M307.3,53.6h-14.5v-36h14.5V53.6z"/>
	<path class="st0" d="M346.9,21.8c3.4,3.3,5.1,7.9,5.1,13.8s-1.7,10.5-5.1,13.8s-8.2,4.9-14.4,4.9c-6.2,0-11-1.6-14.4-4.9
		c-3.4-3.3-5.1-7.9-5.1-13.8s1.7-10.5,5.1-13.8s8.2-4.9,14.4-4.9C338.6,16.8,343.4,18.5,346.9,21.8z M328.6,28.8
		c-0.7,1.3-1.1,3.5-1.1,6.8s0.4,5.5,1.1,6.8s2,1.9,3.9,1.9s3.1-0.6,3.9-1.9c0.7-1.3,1.1-3.5,1.1-6.8s-0.4-5.5-1.1-6.8
		s-2-1.9-3.9-1.9S329.3,27.5,328.6,28.8z"/>
	<path class="st0" d="M392.1,20.1c2.1,2.2,3.1,5.2,3.1,9.1v24.3h-14.5V33.1c0-2-0.3-3.4-0.9-4.2c-0.6-0.8-1.5-1.2-2.7-1.2
		c-1.5,0-2.7,0.6-3.6,1.7s-1.3,2.9-1.3,5.2v18.9h-14.5v-36h13.1L371,25c1.1-2.6,2.6-4.7,4.8-6c2.1-1.4,4.7-2.1,7.6-2.1
		C387.1,16.8,390,17.9,392.1,20.1z"/>
</g>
</svg>
