<?xml version="1.0" encoding="utf-8"?>
<!-- Generator: Adobe Illustrator 22.1.0, SVG Export Plug-In . SVG Version: 6.00 Build 0)  -->
<svg version="1.1" id="Layer_1" xmlns="http://www.w3.org/2000/svg" xmlns:xlink="http://www.w3.org/1999/xlink" x="0px" y="0px"
	 viewBox="0 0 188.5 59.9" style="enable-background:new 0 0 188.5 59.9;" xml:space="preserve">
<style type="text/css">
	.st0{fill:#F3F3F3;}
</style>
<g>
	<path class="st0" d="M33,3.6c3.1,2.4,4.6,5.8,4.6,10.1c0,2.5-0.6,4.6-1.7,6.2c-1.1,1.6-2.4,2.7-3.8,3.4c-1.4,0.7-2.6,1-3.5,1v0.3
		c1.2,0,2.5,0.3,4,0.8c1.5,0.6,2.9,1.6,4.1,3.2c1.2,1.6,1.8,3.8,1.8,6.6c0,2.7-0.8,5.1-2.5,7.2c-1.7,2.1-3.9,3.7-6.8,4.8
		c-2.9,1.1-6.2,1.7-9.8,1.7C14,49,9.7,48,6.6,46.2C3.4,44.3,1.2,41.2,0,37l13.2-5.5c0,2.4,0.6,4,1.7,5c1.1,1,2.5,1.5,4.2,1.5
		c1.6,0,2.9-0.4,3.9-1.2c1-0.8,1.4-1.9,1.4-3.4c0-1.5-0.5-2.6-1.4-3.3c-0.9-0.7-2.4-1.1-4.3-1.1h-3v-8.7h2.2c1.9,0,3.2-0.4,4.1-1.1
		c0.9-0.7,1.3-1.9,1.4-3.5c0-1.5-0.4-2.6-1.2-3.5C21.5,11.4,20.4,11,19,11c-3.5,0-5.3,2.1-5.4,6.2L0.9,13.1C2.1,4.4,8.4,0,20,0
		C25.6,0,30,1.2,33,3.6z"/>
	<path class="st0" d="M58.1,37.4c1.5,1.9,2.2,4.3,2.2,7.2c0,3.4-0.9,6.4-2.8,9.1c-1.8,2.7-4.5,4.8-8,6.2l-6.2-4.1
		c2.4-1,4.5-2.1,6.1-3.4c1.6-1.3,2.8-2.7,3.5-4.4l-0.3-0.3c-0.6,0.6-1.4,0.9-2.3,0.9c-1.8,0-3.3-0.6-4.7-1.7c-1.3-1.2-2-2.8-2-4.9
		c0-2.4,0.7-4.3,2.2-5.5s3.4-1.9,5.9-1.9C54.5,34.6,56.7,35.5,58.1,37.4z"/>
	<path class="st0" d="M97.6,3.6c3.1,2.4,4.6,5.8,4.6,10.1c0,2.5-0.6,4.6-1.7,6.2s-2.4,2.7-3.8,3.4c-1.4,0.7-2.6,1-3.5,1v0.3
		c1.2,0,2.5,0.3,4,0.8c1.5,0.6,2.9,1.6,4.1,3.2c1.2,1.6,1.8,3.8,1.8,6.6c0,2.7-0.8,5.1-2.5,7.2s-3.9,3.7-6.8,4.8
		C90.9,48.4,87.6,49,84,49c-5.5,0-9.8-0.9-12.9-2.8c-3.1-1.9-5.3-4.9-6.6-9.1l13.2-5.5c0,2.4,0.6,4,1.7,5c1.1,1,2.5,1.5,4.2,1.5
		c1.6,0,2.9-0.4,3.9-1.2c1-0.8,1.4-1.9,1.4-3.4c0-1.5-0.5-2.6-1.4-3.3c-0.9-0.7-2.4-1.1-4.3-1.1h-3v-8.7h2.2c1.9,0,3.2-0.4,4.1-1.1
		c0.9-0.7,1.3-1.9,1.4-3.5c0-1.5-0.4-2.6-1.2-3.5C86,11.4,84.9,11,83.5,11c-3.5,0-5.3,2.1-5.4,6.2l-12.7-4.1C66.6,4.4,73,0,84.5,0
		C90.1,0,94.5,1.2,97.6,3.6z"/>
	<path class="st0" d="M141.7,21.4c2.6,2.6,4,6,4,10.2c0,3.9-0.9,7.1-2.6,9.8c-1.8,2.6-4.1,4.5-7,5.8c-2.9,1.2-6.1,1.8-9.7,1.8
		c-4.4,0-8.1-0.7-11.3-2c-3.1-1.3-5.8-3.7-8-7l12.7-7.3c0.3,1.9,1,3.3,2,4.2c1,0.9,2.6,1.4,4.7,1.4c1.9,0,3.4-0.5,4.5-1.4
		c1.1-0.9,1.6-2.3,1.6-4.1c0-1.8-0.5-3.2-1.5-4.1c-1-1-2.6-1.5-4.7-1.5c-2.9,0-5,0.7-6.5,2.2L109,27.5l3.2-26.8h30.7v11h-20.2
		l-0.9,6.8l-0.4,2.2h0.1c0.9-1,2.1-1.8,3.8-2.3c1.7-0.6,3.6-0.8,5.6-0.8C135.4,17.5,139.1,18.8,141.7,21.4z"/>
	<path class="st0" d="M188.5,0.7v10c-5.6,5.3-9.5,11-11.8,17c-2.2,6.1-3.3,12.9-3.3,20.5h-14.5c0-7.1,1.2-13.6,3.6-19.4
		c2.4-5.9,6.3-11.5,11.7-16.8h-26.4V0.7H188.5z"/>
</g>
</svg>
