<?xml version="1.0" encoding="utf-8"?>
<!-- Generator: Adobe Illustrator 22.1.0, SVG Export Plug-In . SVG Version: 6.00 Build 0)  -->
<svg version="1.1" id="Layer_1" xmlns="http://www.w3.org/2000/svg" xmlns:xlink="http://www.w3.org/1999/xlink" x="0px" y="0px"
	 viewBox="0 0 199.4 59.9" style="enable-background:new 0 0 199.4 59.9;" xml:space="preserve">
<style type="text/css">
	.st0{fill:none;}
	.st1{enable-background:new    ;}
	.st2{fill:#F3F3F3;}
</style>
<rect x="-27.1" y="-2.6" class="st0" width="253.3" height="64.7"/>
<g class="st1">
	<path class="st2" d="M33.8,3.9c3.3,2.4,5,5.7,5,10c0,2.4-0.7,4.6-2,6.3c-1.3,1.8-3.3,3.1-5.8,4v0.1c3,0.9,5.2,2.3,6.8,4.2
		c1.6,1.9,2.3,4.3,2.3,7.2c0,4.1-1.8,7.3-5.3,9.7C31.2,47.8,26.3,49,20,49c-6.2,0-11.1-1.2-14.7-3.6C1.8,43,0,39.8,0,35.7
		c0-2.9,0.8-5.3,2.3-7.2c1.6-1.9,3.8-3.3,6.8-4.2v-0.1c-2.5-0.9-4.5-2.3-5.8-4c-1.3-1.8-2-3.9-2-6.3c0-4.2,1.7-7.5,5-10
		S14.2,0.2,20,0.2C25.9,0.2,30.5,1.4,33.8,3.9z M24.4,37.4c1-0.9,1.5-2.1,1.5-3.6s-0.5-2.7-1.5-3.6c-1-0.9-2.5-1.3-4.4-1.3
		c-1.8,0-3.3,0.4-4.3,1.3c-1.1,0.9-1.6,2.1-1.6,3.6s0.5,2.7,1.5,3.6c1,0.9,2.5,1.3,4.4,1.3C21.9,38.7,23.4,38.2,24.4,37.4z
		 M16.2,11.7c-0.9,0.8-1.4,2-1.4,3.5c0,1.5,0.5,2.7,1.4,3.5c0.9,0.8,2.2,1.3,3.9,1.3c1.6,0,2.9-0.4,3.9-1.3c1-0.8,1.4-2,1.4-3.5
		c0-1.5-0.5-2.6-1.4-3.5c-0.9-0.8-2.2-1.2-3.9-1.2C18.4,10.4,17.1,10.8,16.2,11.7z"/>
	<path class="st2" d="M59.7,37.4c1.5,1.9,2.2,4.3,2.2,7.2c0,3.4-0.9,6.4-2.8,9.1c-1.8,2.7-4.5,4.8-8,6.2l-6.2-4.1
		c2.4-1,4.5-2.1,6.1-3.4c1.6-1.3,2.8-2.7,3.5-4.4l-0.3-0.3c-0.6,0.6-1.4,0.9-2.3,0.9c-1.8,0-3.3-0.6-4.7-1.7c-1.3-1.2-2-2.8-2-4.9
		c0-2.4,0.7-4.3,2.2-5.5s3.4-1.9,5.9-1.9C56,34.6,58.2,35.5,59.7,37.4z"/>
	<path class="st2" d="M110,38.5h-6.8v9.7H90.4v-9.7H66.2v-6.4L86.1,0.7h17.1v28.1h6.8V38.5z M79.7,28.8h10.7V17.9l0.2-7.8h-0.1
		c-0.9,2.4-2.2,5-3.9,7.8L79.7,28.8z"/>
	<path class="st2" d="M119.6,42.8c-3.4-4.1-5.1-10.2-5.1-18.4s1.7-14.3,5.1-18.4C123,2,128.2,0,135.1,0c6.9,0,12,2,15.4,6.1
		c3.4,4.1,5.1,10.2,5.1,18.4s-1.7,14.3-5.1,18.4c-3.4,4.1-8.5,6.1-15.4,6.1C128.2,49,123,46.9,119.6,42.8z M138.6,36.5
		c0.9-0.8,1.5-2.2,1.9-4.1c0.4-1.9,0.6-4.5,0.6-7.9c0-3.4-0.2-6-0.6-7.9c-0.4-1.9-1-3.3-1.9-4.1c-0.9-0.8-2-1.3-3.5-1.3
		c-1.5,0-2.7,0.4-3.6,1.3c-0.9,0.8-1.5,2.2-1.9,4.1c-0.4,1.9-0.6,4.5-0.6,7.9c0,3.4,0.2,6,0.6,7.9c0.4,1.9,1,3.3,1.9,4.1
		c0.9,0.8,2.1,1.3,3.6,1.3C136.6,37.7,137.7,37.3,138.6,36.5z"/>
	<path class="st2" d="M162.4,39.2c7.4-4.3,13-8.3,16.6-12.1c3.6-3.8,5.4-7.3,5.4-10.5c0-1.6-0.4-2.9-1.3-3.9c-0.9-1-2.1-1.5-3.7-1.5
		c-3.9,0-5.9,3-5.9,9.1l-12.6-3.4c0-3.6,0.8-6.7,2.5-9.3c1.7-2.5,4-4.5,6.9-5.7c2.9-1.3,6.3-1.9,10-1.9c4.3,0,7.8,0.8,10.6,2.3
		c2.8,1.5,4.8,3.5,6.1,5.8c1.3,2.4,1.9,4.8,1.9,7.3c0,4.4-1.7,8.4-5,12c-3.3,3.6-8.1,7-14.3,10.2v0.1c3-0.2,6.5-0.4,10.5-0.4h9.1
		v10.9h-36.9V39.2z"/>
</g>
</svg>
